<mxfile host="Electron" modified="2024-09-01T14:58:35.077Z" agent="Mozilla/5.0 (Windows NT 10.0; Win64; x64) AppleWebKit/537.36 (KHTML, like Gecko) draw.io/22.1.2 Chrome/114.0.5735.289 Electron/25.9.4 Safari/537.36" etag="VSvo9lyQpTCNIWF-HjUk" version="22.1.2" type="device">
  <diagram name="Page-1" id="QyxqvX_1db5dUfhww3ZA">
    <mxGraphModel dx="1668" dy="1021" grid="1" gridSize="10" guides="1" tooltips="1" connect="1" arrows="1" fold="1" page="1" pageScale="1" pageWidth="1920" pageHeight="1200" math="0" shadow="0">
      <root>
        <mxCell id="0" />
        <mxCell id="1" parent="0" />
        <mxCell id="zRJOl9dP2n_8ajHXp14C-1" value="" style="shape=mxgraph.cisco.routers.router;sketch=0;html=1;pointerEvents=1;dashed=0;fillColor=#036897;strokeColor=#ffffff;strokeWidth=2;verticalLabelPosition=bottom;verticalAlign=top;align=center;outlineConnect=0;" vertex="1" parent="1">
          <mxGeometry x="920" y="720" width="78" height="53" as="geometry" />
        </mxCell>
        <mxCell id="zRJOl9dP2n_8ajHXp14C-2" value="" style="shape=mxgraph.cisco.security.firewall;sketch=0;html=1;pointerEvents=1;dashed=0;fillColor=#036897;strokeColor=#ffffff;strokeWidth=2;verticalLabelPosition=bottom;verticalAlign=top;align=center;outlineConnect=0;" vertex="1" parent="1">
          <mxGeometry x="770" y="713" width="29" height="67" as="geometry" />
        </mxCell>
        <mxCell id="zRJOl9dP2n_8ajHXp14C-11" style="edgeStyle=orthogonalEdgeStyle;rounded=0;orthogonalLoop=1;jettySize=auto;html=1;" edge="1" parent="1" source="zRJOl9dP2n_8ajHXp14C-19" target="zRJOl9dP2n_8ajHXp14C-2">
          <mxGeometry relative="1" as="geometry" />
        </mxCell>
        <mxCell id="zRJOl9dP2n_8ajHXp14C-12" style="edgeStyle=orthogonalEdgeStyle;rounded=0;orthogonalLoop=1;jettySize=auto;html=1;entryX=1;entryY=0.5;entryDx=0;entryDy=0;" edge="1" parent="1" source="zRJOl9dP2n_8ajHXp14C-4" target="zRJOl9dP2n_8ajHXp14C-5">
          <mxGeometry relative="1" as="geometry">
            <Array as="points">
              <mxPoint x="500" y="747" />
              <mxPoint x="500" y="635" />
            </Array>
          </mxGeometry>
        </mxCell>
        <mxCell id="zRJOl9dP2n_8ajHXp14C-13" style="edgeStyle=orthogonalEdgeStyle;rounded=0;orthogonalLoop=1;jettySize=auto;html=1;" edge="1" parent="1" source="zRJOl9dP2n_8ajHXp14C-4" target="zRJOl9dP2n_8ajHXp14C-6">
          <mxGeometry relative="1" as="geometry" />
        </mxCell>
        <mxCell id="zRJOl9dP2n_8ajHXp14C-14" style="edgeStyle=orthogonalEdgeStyle;rounded=0;orthogonalLoop=1;jettySize=auto;html=1;entryX=1;entryY=0.5;entryDx=0;entryDy=0;" edge="1" parent="1" source="zRJOl9dP2n_8ajHXp14C-4" target="zRJOl9dP2n_8ajHXp14C-7">
          <mxGeometry relative="1" as="geometry">
            <Array as="points">
              <mxPoint x="500" y="747" />
              <mxPoint x="500" y="845" />
            </Array>
          </mxGeometry>
        </mxCell>
        <mxCell id="zRJOl9dP2n_8ajHXp14C-15" style="edgeStyle=orthogonalEdgeStyle;rounded=0;orthogonalLoop=1;jettySize=auto;html=1;entryX=1;entryY=0.5;entryDx=0;entryDy=0;" edge="1" parent="1" source="zRJOl9dP2n_8ajHXp14C-4" target="zRJOl9dP2n_8ajHXp14C-8">
          <mxGeometry relative="1" as="geometry">
            <Array as="points">
              <mxPoint x="500" y="747" />
              <mxPoint x="500" y="945" />
            </Array>
          </mxGeometry>
        </mxCell>
        <mxCell id="zRJOl9dP2n_8ajHXp14C-4" value="" style="shape=mxgraph.cisco.switches.workgroup_switch;sketch=0;html=1;pointerEvents=1;dashed=0;fillColor=#036897;strokeColor=#ffffff;strokeWidth=2;verticalLabelPosition=bottom;verticalAlign=top;align=center;outlineConnect=0;" vertex="1" parent="1">
          <mxGeometry x="550" y="727.25" width="101" height="38.5" as="geometry" />
        </mxCell>
        <mxCell id="zRJOl9dP2n_8ajHXp14C-5" value="" style="image;aspect=fixed;perimeter=ellipsePerimeter;html=1;align=center;shadow=0;dashed=0;spacingTop=3;image=img/lib/active_directory/domain_controller.svg;" vertex="1" parent="1">
          <mxGeometry x="390" y="600" width="49" height="70" as="geometry" />
        </mxCell>
        <mxCell id="zRJOl9dP2n_8ajHXp14C-6" value="" style="image;aspect=fixed;perimeter=ellipsePerimeter;html=1;align=center;shadow=0;dashed=0;spacingTop=3;image=img/lib/active_directory/workstation_client.svg;" vertex="1" parent="1">
          <mxGeometry x="390" y="721.5" width="42.5" height="50" as="geometry" />
        </mxCell>
        <mxCell id="zRJOl9dP2n_8ajHXp14C-7" value="" style="image;aspect=fixed;perimeter=ellipsePerimeter;html=1;align=center;shadow=0;dashed=0;spacingTop=3;image=img/lib/active_directory/workstation_client.svg;" vertex="1" parent="1">
          <mxGeometry x="390" y="820" width="42.5" height="50" as="geometry" />
        </mxCell>
        <mxCell id="zRJOl9dP2n_8ajHXp14C-8" value="" style="image;aspect=fixed;perimeter=ellipsePerimeter;html=1;align=center;shadow=0;dashed=0;spacingTop=3;image=img/lib/active_directory/workstation_client.svg;" vertex="1" parent="1">
          <mxGeometry x="390" y="920" width="42.5" height="50" as="geometry" />
        </mxCell>
        <mxCell id="zRJOl9dP2n_8ajHXp14C-9" value="Domain &lt;br&gt;Controller" style="text;html=1;align=center;verticalAlign=middle;resizable=0;points=[];autosize=1;strokeColor=none;fillColor=none;" vertex="1" parent="1">
          <mxGeometry x="290" y="615" width="80" height="40" as="geometry" />
        </mxCell>
        <mxCell id="zRJOl9dP2n_8ajHXp14C-10" style="edgeStyle=orthogonalEdgeStyle;rounded=0;orthogonalLoop=1;jettySize=auto;html=1;entryX=0;entryY=0.5;entryDx=0;entryDy=0;entryPerimeter=0;" edge="1" parent="1" source="zRJOl9dP2n_8ajHXp14C-2" target="zRJOl9dP2n_8ajHXp14C-1">
          <mxGeometry relative="1" as="geometry" />
        </mxCell>
        <mxCell id="zRJOl9dP2n_8ajHXp14C-16" value="" style="shape=mxgraph.cisco.storage.web_cluster;sketch=0;html=1;pointerEvents=1;dashed=0;fillColor=#036897;strokeColor=#ffffff;strokeWidth=2;verticalLabelPosition=bottom;verticalAlign=top;align=center;outlineConnect=0;" vertex="1" parent="1">
          <mxGeometry x="1160" y="693.5" width="186" height="106" as="geometry" />
        </mxCell>
        <mxCell id="zRJOl9dP2n_8ajHXp14C-17" value="Internet" style="text;html=1;align=center;verticalAlign=middle;resizable=0;points=[];autosize=1;strokeColor=none;fillColor=none;" vertex="1" parent="1">
          <mxGeometry x="1230" y="810" width="60" height="30" as="geometry" />
        </mxCell>
        <mxCell id="zRJOl9dP2n_8ajHXp14C-18" style="edgeStyle=orthogonalEdgeStyle;rounded=0;orthogonalLoop=1;jettySize=auto;html=1;entryX=0.04;entryY=0.5;entryDx=0;entryDy=0;entryPerimeter=0;" edge="1" parent="1" source="zRJOl9dP2n_8ajHXp14C-1" target="zRJOl9dP2n_8ajHXp14C-16">
          <mxGeometry relative="1" as="geometry" />
        </mxCell>
        <mxCell id="zRJOl9dP2n_8ajHXp14C-20" value="IPS" style="text;html=1;align=center;verticalAlign=middle;resizable=0;points=[];autosize=1;strokeColor=none;fillColor=none;" vertex="1" parent="1">
          <mxGeometry x="685" y="780" width="40" height="30" as="geometry" />
        </mxCell>
        <mxCell id="zRJOl9dP2n_8ajHXp14C-21" value="" style="edgeStyle=orthogonalEdgeStyle;rounded=0;orthogonalLoop=1;jettySize=auto;html=1;" edge="1" parent="1" source="zRJOl9dP2n_8ajHXp14C-4" target="zRJOl9dP2n_8ajHXp14C-19">
          <mxGeometry relative="1" as="geometry">
            <mxPoint x="651" y="747" as="sourcePoint" />
            <mxPoint x="770" y="747" as="targetPoint" />
          </mxGeometry>
        </mxCell>
        <mxCell id="zRJOl9dP2n_8ajHXp14C-19" value="" style="shape=mxgraph.cisco.security.network_security;sketch=0;html=1;pointerEvents=1;dashed=0;fillColor=#036897;strokeColor=#ffffff;strokeWidth=2;verticalLabelPosition=bottom;verticalAlign=top;align=center;outlineConnect=0;" vertex="1" parent="1">
          <mxGeometry x="685" y="717.5" width="45" height="58" as="geometry" />
        </mxCell>
        <mxCell id="zRJOl9dP2n_8ajHXp14C-22" value="" style="shape=mxgraph.cisco.security.network_security;sketch=0;html=1;pointerEvents=1;dashed=0;fillColor=#036897;strokeColor=#ffffff;strokeWidth=2;verticalLabelPosition=bottom;verticalAlign=top;align=center;outlineConnect=0;" vertex="1" parent="1">
          <mxGeometry x="387.5" y="1000" width="45" height="58" as="geometry" />
        </mxCell>
        <mxCell id="zRJOl9dP2n_8ajHXp14C-24" value="IDS" style="text;html=1;align=center;verticalAlign=middle;resizable=0;points=[];autosize=1;strokeColor=none;fillColor=none;" vertex="1" parent="1">
          <mxGeometry x="390" y="1058" width="40" height="30" as="geometry" />
        </mxCell>
        <mxCell id="zRJOl9dP2n_8ajHXp14C-25" style="edgeStyle=orthogonalEdgeStyle;rounded=0;orthogonalLoop=1;jettySize=auto;html=1;entryX=0;entryY=0.5;entryDx=0;entryDy=0;entryPerimeter=0;" edge="1" parent="1" source="zRJOl9dP2n_8ajHXp14C-22" target="zRJOl9dP2n_8ajHXp14C-4">
          <mxGeometry relative="1" as="geometry">
            <Array as="points">
              <mxPoint x="500" y="1029" />
              <mxPoint x="500" y="747" />
            </Array>
          </mxGeometry>
        </mxCell>
      </root>
    </mxGraphModel>
  </diagram>
</mxfile>
